<svg width="24" height="24" viewBox="0 0 24 24" fill="none" xmlns="http://www.w3.org/2000/svg">
<path d="M20.25 5.625H16.8591C16.7601 4.40426 16.2053 3.26548 15.305 2.43518C14.4046 1.60487 13.2247 1.14388 12 1.14388C10.7753 1.14388 9.59538 1.60487 8.69504 2.43518C7.79471 3.26548 7.23989 4.40426 7.14094 5.625H3.75C3.25272 5.625 2.77581 5.82255 2.42417 6.17418C2.07254 6.52581 1.875 7.00272 1.875 7.5V18.75C1.875 19.2473 2.07254 19.7242 2.42417 20.0758C2.77581 20.4275 3.25272 20.625 3.75 20.625H20.25C20.7473 20.625 21.2242 20.4275 21.5758 20.0758C21.9275 19.7242 22.125 19.2473 22.125 18.75V7.5C22.125 7.00272 21.9275 6.52581 21.5758 6.17418C21.2242 5.82255 20.7473 5.625 20.25 5.625ZM12 3.375C12.6312 3.37506 13.2412 3.60255 13.7183 4.01577C14.1954 4.429 14.5076 5.0003 14.5978 5.625H9.40219C9.49236 5.0003 9.80459 4.429 10.2817 4.01577C10.7588 3.60255 11.3688 3.37506 12 3.375ZM19.875 18.375H4.125V7.875H7.125V9C7.125 9.29837 7.24353 9.58452 7.4545 9.7955C7.66548 10.0065 7.95163 10.125 8.25 10.125C8.54837 10.125 8.83452 10.0065 9.0455 9.7955C9.25647 9.58452 9.375 9.29837 9.375 9V7.875H14.625V9C14.625 9.29837 14.7435 9.58452 14.9545 9.7955C15.1655 10.0065 15.4516 10.125 15.75 10.125C16.0484 10.125 16.3345 10.0065 16.5455 9.7955C16.7565 9.58452 16.875 9.29837 16.875 9V7.875H19.875V18.375Z" fill="black"/>
</svg>
