<svg width="24" height="24" viewBox="0 0 24 24" fill="none" xmlns="http://www.w3.org/2000/svg">
<g clip-path="url(#clip0_64_983)">
<path d="M21.3333 3.33334H12V10H24V6.00001C24 5.29277 23.719 4.61449 23.219 4.11439C22.7189 3.61429 22.0406 3.33334 21.3333 3.33334Z" fill="#EDECEC"/>
<path d="M7.33333 3.33334H2.66667C1.95942 3.33334 1.28115 3.61429 0.781049 4.11439C0.280952 4.61449 0 5.29277 0 6.00001L0 10H7.33333V3.33334Z" fill="#EEEEEE"/>
<path d="M21.3333 20.6667H12V14H24V18C24 18.7072 23.719 19.3855 23.219 19.8856C22.7189 20.3857 22.0406 20.6667 21.3333 20.6667ZM7.33333 20.6667H2.66667C1.95942 20.6667 1.28115 20.3857 0.781049 19.8856C0.280952 19.3855 0 18.7072 0 18V14H7.33333V20.6667Z" fill="#EDECEC"/>
<path d="M12 3.33334H7.33333V10H0V14H7.33333V20.6667H12V14H24V10H12V3.33334Z" fill="#003580"/>
</g>
<defs>
<clipPath id="clip0_64_983">
<rect width="24" height="24" fill="white"/>
</clipPath>
</defs>
</svg>
