<svg width="23" height="23" viewBox="0 0 23 23" fill="none" xmlns="http://www.w3.org/2000/svg">
<path d="M12.7159 3.51596C13.0034 3.2285 13.3933 3.06702 13.7999 3.06702C14.2065 3.06702 14.5965 3.2285 14.884 3.51596L21.784 10.416C22.0715 10.7035 22.2329 11.0934 22.2329 11.5C22.2329 11.9066 22.0715 12.2965 21.784 12.5841L14.884 19.4841C14.5948 19.7634 14.2075 19.9179 13.8055 19.9145C13.4034 19.911 13.0188 19.7497 12.7345 19.4654C12.4503 19.1811 12.289 18.7965 12.2855 18.3945C12.282 17.9925 12.4366 17.6051 12.7159 17.316L16.8666 13.0334H2.29993C1.89327 13.0334 1.50326 12.8718 1.2157 12.5843C0.928149 12.2967 0.766602 11.9067 0.766602 11.5C0.766602 11.0934 0.928149 10.7033 1.2157 10.4158C1.50326 10.1282 1.89327 9.96669 2.29993 9.96669H16.8666L12.7159 5.68409C12.4284 5.39655 12.2669 5.00661 12.2669 4.60002C12.2669 4.19344 12.4284 3.8035 12.7159 3.51596Z" fill="black"/>
</svg>
