<svg width="36" height="36" viewBox="0 0 36 36" fill="none" xmlns="http://www.w3.org/2000/svg">
<path d="M18.3667 30.8563H12.5981C11.5451 30.8562 10.527 30.4793 9.7279 29.7937C8.92879 29.108 8.40151 28.159 8.24146 27.1183L6.39743 15.1401C6.33302 14.7214 6.35994 14.2936 6.47634 13.8862C6.59274 13.4788 6.79586 13.1013 7.07178 12.7798C7.3477 12.4582 7.68989 12.2001 8.0749 12.0232C8.4599 11.8463 8.87862 11.7547 9.30233 11.7548H25.9633C26.387 11.7547 26.8057 11.8463 27.1907 12.0232C27.5757 12.2001 27.9179 12.4582 28.1938 12.7798C28.4697 13.1013 28.6729 13.4788 28.7893 13.8862C28.9057 14.2936 28.9326 14.7214 28.8682 15.1401L28.4817 17.6498M23.5095 27.9176H32.3256M27.9175 23.5096V32.3256" stroke="white" stroke-width="3" stroke-linecap="round" stroke-linejoin="round"/>
<path d="M13.2241 16.1628V8.81607C13.2241 7.64698 13.6885 6.52578 14.5152 5.69911C15.3419 4.87244 16.4631 4.40802 17.6322 4.40802C18.8013 4.40802 19.9225 4.87244 20.7491 5.69911C21.5758 6.52578 22.0402 7.64698 22.0402 8.81607V16.1628" stroke="white" stroke-width="3" stroke-linecap="round" stroke-linejoin="round"/>
</svg>
